<?xml version="1.0" encoding="utf-8"?>
<!-- Generator: Adobe Illustrator 25.3.1, SVG Export Plug-In . SVG Version: 6.00 Build 0)  -->
<svg version="1.1" id="Camada_1" xmlns="http://www.w3.org/2000/svg" xmlns:xlink="http://www.w3.org/1999/xlink" x="0px" y="0px"
	 viewBox="0 0 684.77 351.57" style="enable-background:new 0 0 684.77 351.57;" xml:space="preserve">
<g>
	<path d="M187.63,61.83c17.42,0,31.17,6.53,31.17,25.88c0,9.37-4.05,17.38-12.64,21.81c12.64,2.22,21.6,9.24,21.6,25.63
		c0,16.76-12.15,28.34-33.13,28.34h-38.41V61.83H187.63z M181.12,101.64c9.94,0,15.34-3.08,15.34-11.58
		c0-7.27-5.28-10.35-15.34-10.35h-1.84v21.94H181.12z M186.52,145.63c10.92,0,16.93-3.33,16.93-11.34c0-9.37-6.01-12.69-16.93-12.69
		h-7.24v24.03H186.52z"/>
	<path d="M284.45,59.98c28.1,0,50.93,22.92,50.93,52.62c0,29.7-21.84,52.74-50.93,52.74c-29.94,0-51.05-23.04-51.05-52.74
		C233.4,82.9,256.6,59.98,284.45,59.98z M284.45,142.92c18.41,0,26.01-15.16,26.01-30.31c0-15.16-8.1-30.31-26.01-30.31
		c-17.79,0-26.14,15.16-26.14,30.31C258.31,127.76,265.55,142.92,284.45,142.92z"/>
	<path d="M381.77,61.83c18.77,0,33.01,10.23,33.01,30.19c0,15.28-8.34,25.51-20.74,29.45l34.85,42.02h-29.33l-30.92-40.17v40.17
		h-23.07V61.83H381.77z M371.34,106.93c8.71,0,19.14-0.62,19.14-13.31c0-12.69-10.43-13.31-19.14-13.31h-2.7v26.62H371.34z"/>
	<path d="M525.71,163.5h-24.79l-7.49-20.33H454.9l-7.49,20.33h-24.79l40.86-101.66h21.35L525.71,163.5z M474.29,93.26h-0.25
		l-11.29,29.58h22.82L474.29,93.26z"/>
</g>
<rect x="61.22" y="59.99" width="32.13" height="229.53"/>
<rect x="99.76" y="59.99" width="32.13" height="229.53"/>
<g>
	<path d="M193.44,184.76c19.76,0,34.6,10.23,34.6,31.3c0,20.95-14.85,32.66-34.6,32.66h-13.87v37.71h-23.07V184.76H193.44z
		 M186.08,230.23c9.08,0,17.67-3.08,17.67-13.43c0-10.47-8.59-13.56-17.67-13.56h-6.5v26.99H186.08z"/>
	<path d="M274.44,184.76c18.77,0,33.01,10.23,33.01,30.19c0,15.28-8.34,25.51-20.74,29.45l34.85,42.02h-29.33l-30.92-40.17v40.17
		h-23.07V184.76H274.44z M264.01,229.86c8.71,0,19.14-0.62,19.14-13.31c0-12.69-10.43-13.31-19.14-13.31h-2.7v26.62H264.01z"/>
	<path d="M418.38,286.42h-24.79l-7.49-20.33h-38.53l-7.49,20.33H315.3l40.86-101.67h21.35L418.38,286.42z M366.96,216.18h-0.25
		l-11.29,29.58h22.82L366.96,216.18z"/>
	<path d="M487.23,184.76c17.43,0,31.17,6.53,31.17,25.88c0,9.37-4.05,17.38-12.64,21.81c12.64,2.22,21.6,9.24,21.6,25.63
		c0,16.76-12.15,28.34-33.13,28.34h-38.41V184.76H487.23z M480.72,224.56c9.94,0,15.34-3.08,15.34-11.58
		c0-7.27-5.28-10.35-15.34-10.35h-1.84v21.94H480.72z M486.12,268.56c10.92,0,16.93-3.33,16.93-11.34c0-9.37-6.01-12.69-16.93-12.69
		h-7.24v24.03H486.12z"/>
	<path d="M607.36,259.19l9.82,19.72c0,0-11.29,9.37-33.25,9.37c-28.59,0-54.85-23.41-54.85-52.5c0-29.21,26.14-52.87,54.85-52.87
		c21.97,0,33.25,9.37,33.25,9.37l-9.82,19.72c0,0-8.1-6.28-19.88-6.28c-23.19,0-33.38,16.27-33.38,29.82
		c0,13.68,10.18,29.95,33.38,29.95C599.27,265.48,607.36,259.19,607.36,259.19z"/>
</g>
</svg>
